# AST/ASF file generated using VICON BodyLanguage
# -----------------------------------------------
:version 1.10
:name VICON
:units
  mass 1.0
  length 0.45
  angle deg
:documentation
   .ast/.asf automatically generated from VICON data using
   VICON BodyBuilder and BodyLanguage model FoxedUp or BRILLIANT.MOD
:root
   order TX TY TZ RX RY RZ
   axis XYZ
   position 0 0 0  
   orientation 0 0 0 
:bonedata
  begin
     id 1 
     name lhipjoint
     direction 0.78388 -0.462562 0.414208 
     length 3.01181 
     axis 0 0 0  XYZ
  end
  begin
     id 2 
     name lfemur
     direction 0.34202 -0.939693 0  
     length 6.04673  
     axis 0 0 20  XYZ
    dof rx ry rz
    limits (-160.0 20.0)
           (-70.0 70.0)
           (-60.0 70.0)
  end
  begin
     id 3 
     name ltibia
     direction 0.34202 -0.939693 0   
     length 7.211   
     axis 0 0 20   XYZ
    dof rx
    limits (-10.0 170.0)
  end
  begin
     id 4 
     name lfoot
     direction 0.121887 -0.334882 0.934344   
     length 2.13567   
     axis -90 7.62852e-016 20   XYZ
    dof rx rz
    limits (-45.0 90.0)
           (-70.0 20.0)
  end
  begin
     id 5 
     name ltoes
     direction 1.53555e-011 -4.2179e-011 1   
     length 1.05957   
     axis -90 7.62852e-016 20   XYZ
    dof rx
    limits (-90.0 20.0)
  end
  begin
     id 6 
     name rhipjoint
     direction -0.769387 -0.475875 0.426129   
     length 2.92756  
     axis 0 0 0  XYZ 
  end
  begin
     id 7 
     name rfemur
     direction -0.34202 -0.939693 0   
     length 6.35468   
     axis 0 0 -20   XYZ
    dof rx ry rz
    limits (-160.0 20.0)
           (-70.0 70.0)
           (-70.0 60.0)
  end
  begin
     id 8 
     name rtibia
     direction -0.34202 -0.939693 0   
     length 7.37886   
     axis 0 0 -20   XYZ
    dof rx
    limits (-10.0 170.0)
 end
 begin
     id 9 
     name rfoot
     direction -0.101763 -0.279592 0.954711   
     length 2.21478  
     axis -90 -7.62852e-016 -20   XYZ
    dof rx rz
    limits (-45.0 90.0)
           (-20.0 70.0)
  end
  begin
     id 10 
     name rtoes
     direction -1.53494e-011 -4.21851e-011 1   
     length 1.10506   
     axis -90 -7.62852e-016 -20   XYZ
    dof rx
    limits (-90.0 20.0)
  end
  begin
     id 11 
     name lowerback
     direction 0.00747405 0.999267 0.0375481   
     length 2.13259   
     axis 0 0 0   XYZ
    dof rx ry rz
    limits (-20.0 45.0)
           (-30.0 30.0)
           (-30.0 30.0)
  end
  begin
     id 12 
     name upperback
     direction 0.00661626 0.996177 0.0871029   
     length 2.10528   
     axis 0 0 0   XYZ
    dof rx ry rz
    limits (-20.0 45.0)
           (-30.0 30.0)
           (-30.0 30.0)
  end
  begin
     id 13 
     name thorax
     direction 0.00320659 0.997679 0.0680167   
     length 2.11338   
     axis 0 0 0   XYZ
    dof rx ry rz
    limits (-20.0 45.0)
           (-30.0 30.0)
           (-30.0 30.0)
  end
  begin
     id 14 
     name lowerneck
     direction 0.0374841 0.973033 0.227602   
     length 1.42765   
     axis 0 0 0   XYZ
    dof rx ry rz
    limits (-20.0 45.0)
           (-30.0 30.0)
           (-30.0 30.0)
  end
  begin
     id 15 
     name upperneck
     direction 0.00481585 0.989155 -0.146795   
     length 1.47593   
     axis 0 0 0   XYZ
    dof rx ry rz
    limits (-20.0 45.0)
           (-30.0 30.0)
           (-30.0 30.0)
  end
  begin
     id 16
     name head
     direction -0.00292522 0.997206 -0.0746423  
     length 1.48116  
     axis 0 0 0   XYZ
    dof rx ry rz
    limits (-20.0 45.0)
           (-30.0 30.0)
           (-30.0 30.0)
  end
  begin
     id 17 
     name lclavicle
     direction 0.951444 0.305606 0.0368784  
     length 3.01855  
     axis 0 0 0   XYZ
    dof ry rz
    limits (-20.0 10.0)
           (0.0 20.0)
  end
  begin
     id 18 
     name lhumerus
     direction 1 -4.48977e-011 2.61664e-027   
     length 5.52731   
     axis 180 -30 -90   XYZ
    dof rx ry rz
    limits (-60.0 90.0)
           (-90.0 90.0)
           (-90.0 90.0)
  end
  begin
     id 19
     name lradius
     direction 1 -4.48944e-011 8.22157e-027   
     length 3.11059   
     axis 180 -30 -90   XYZ
    dof rx
    limits (-10.0 170.0)
  end
  begin
     id 20
     name lwrist
     direction 1 -4.48976e-011 1.5779e-026   
     length 1.5553   
     axis -1.15221e-014 90 90   XYZ
    dof ry
    limits (-180.0 0.0)
 end
  begin
     id 21 
     name lhand
     direction 1 -4.49025e-011 3.1558e-026   
     length 0.419626   
     axis -2.01367e-014 90 90   XYZ
    dof rx rz
    limits (-90.0 90.0)
           (-45.0 45.0)
  end
  begin
     id 22 
     name lfingers
     direction 1 -4.4904e-011 6.31161e-026   
     length 0.338313   
     axis -4.02734e-014 90 90   XYZ
    dof rx
    limits (0.0 90.0)
  end
  begin
     id 23
     name lthumb
     direction 0.707107 -6.35004e-011 0.707107   
     length 0.485752   
     axis -90 45 2.85299e-015   XYZ
    dof rx rz
    limits (-45.0 45.0)
           (-45.0 45.0)
  end
  begin
     id 24 
     name rclavicle
     direction -0.968876 0.223791 0.105816   
     length 3.04177  
     axis 0 0 0   XYZ 
    dof ry rz
    limits (-10.0 20.0)
           (-20.0 0.0)
  end
  begin
     id 25 
     name rhumerus
     direction -1 -4.48962e-011 -1.01384e-027  
     length 5.25396   
     axis 180 30 90   XYZ
    dof rx ry rz
    limits (-90.0 60.0)
           (-90.0 90.0)
           (-90.0 90.0)
  end
  begin
     id 26 
     name rradius
     direction -1 -4.48955e-011 8.88542e-027   
     length 3.10567   
     axis 180 30 90   XYZ
    dof rx
    limits (-10.0 170.0)
  end
  begin
     id 27 
     name rwrist
     direction -1 -4.48994e-011 1.5779e-026   
     length 1.55283   
     axis -1.15221e-014 -90 -90   XYZ
    dof ry
    limits (-180.0 0.0)
  end
  begin
     id 28
     name rhand
     direction -1 -4.48891e-011 3.1558e-026   
     length 0.498676   
     axis -2.01367e-014 -90 -90   XYZ
    dof rx rz
    limits (-90.0 90.0)
           (-45.0 45.0)
  end
  begin
     id 29
     name rfingers
     direction -1 -4.48972e-011 6.31161e-026   
     length 0.402045   
     axis -4.02734e-014 -90 -90   XYZ
    dof rx
    limits (0.0 90.0)
  end
  begin
     id 30
     name rthumb
     direction -0.707107 -6.34849e-011 0.707107   
     length 0.577259   
     axis -90 -45 -2.85299e-015   XYZ
    dof rx rz
    limits (-45.0 45.0)
           (-45.0 45.0)
  end
:hierarchy
  begin
    root lhipjoint rhipjoint lowerback
    lhipjoint lfemur
    lfemur ltibia
    ltibia lfoot
    lfoot ltoes
    rhipjoint rfemur
    rfemur rtibia
    rtibia rfoot
    rfoot rtoes
    lowerback upperback
    upperback thorax
    thorax lowerneck lclavicle rclavicle
    lowerneck upperneck
    upperneck head
    lclavicle lhumerus
    lhumerus lradius
    lradius lwrist
    lwrist lhand lthumb
    lhand lfingers
    rclavicle rhumerus
    rhumerus rradius
    rradius rwrist
    rwrist rhand rthumb
    rhand rfingers
  end

#!OML:ASF H:\Pregnant\Project 1\Capture day 1\Session 1\femalepreg.ASF
:FULLY-SPECIFIED
:DEGREES
138
root 5.19607 15.725 28.0901 -181.307 -86.6398 -161.47
lowerback -30.9901 -0.547234 -3.50275
upperback -3.84131 -0.47956 3.44941
thorax 11.9871 -0.625114 5.38583
lowerneck -10.1948 4.93936 4.98596
upperneck 29.6799 6.36627 -3.94581
head 11.6507 2.64441 -1.55526
rclavicle 1.04362e-015 -5.00937e-014
rhumerus 4.19924 54.9157 -95.2071
rradius 147.287
rwrist -41.389
rhand -45.1128 -20.8921
rfingers 7.12502
rthumb -17.8921 -50.0891
lclavicle 1.04362e-015 -5.00937e-014
lhumerus 7.088 -38.9282 98.3672
lradius 146.24
lwrist 43.4611
lhand -46.3443 -19.9274
lfingers 7.12502
lthumb -19.0768 9.15708
rfemur -24.6731 19.1284 19.9232
rtibia 27.4736
rfoot -15.6284 -15.6777
rtoes -2.90235
lfemur 0 0 0
ltibia 0
lfoot 0 0
ltoes 0
139
root 5.19516 15.7248 28.0874 -181.244 -86.6518 -161.525
lowerback -31.0185 -0.570387 -3.51585
upperback -3.81897 -0.503233 3.44928
thorax 12.0273 -0.63742 5.38433
lowerneck -10.1294 4.95238 4.99681
upperneck 29.6469 6.38701 -3.95895
head 11.6264 2.65446 -1.56038
rclavicle -8.24956e-015 2.14687e-014
rhumerus 4.19931 54.9397 -95.2117
rradius 147.263
rwrist -41.4307
rhand -45.1403 -20.7987
rfingers 7.12502
rthumb -17.9186 -49.9933
lclavicle -8.24956e-015 2.14687e-014
lhumerus 7.06531 -38.8848 98.3686
lradius 146.208
lwrist 43.5271
lhand -46.3136 -19.972
lfingers 7.12502
lthumb -19.0473 9.11532
rfemur -24.6804 19.1256 19.9256
rtibia 27.4815
rfoot -15.6366 -15.6765
rtoes -2.88068
lfemur 0 0 0
ltibia 0
lfoot 0 0
ltoes 0
140
root 5.19424 15.7246 28.0848 -181.201 -86.665 -161.558
lowerback -31.0489 -0.584134 -3.52432
upperback -3.79779 -0.514585 3.43726
thorax 12.0652 -0.643557 5.37205
lowerneck -10.0664 4.95969 5.0221
upperneck 29.6168 6.39342 -3.96231
head 11.6033 2.66084 -1.56623
rclavicle -8.05078e-015 -6.36111e-015
rhumerus 4.1985 54.9411 -95.2215
rradius 147.234
rwrist -41.4675
rhand -45.1787 -20.7134
rfingers 7.12502
rthumb -17.9556 -49.9045
lclavicle -8.05078e-015 -6.36111e-015
lhumerus 7.04626 -38.8585 98.3599
lradius 146.176
lwrist 43.6093
lhand -46.2931 -20.0197
lfingers 7.12502
lthumb -19.0276 9.06962
rfemur -24.6902 19.1185 19.9289
rtibia 27.4888
rfoot -15.6476 -15.6722
rtoes -2.84785
lfemur 0 0 0
ltibia 0
lfoot 0 0
ltoes 0
141
root 5.19326 15.7246 28.0821 -181.203 -86.6786 -161.546
lowerback -31.0797 -0.586488 -3.5271
upperback -3.77667 -0.511574 3.41488
thorax 12.1011 -0.642572 5.35092
lowerneck -10.0088 4.95982 5.05456
upperneck 29.5902 6.38451 -3.95416
head 11.5817 2.66247 -1.57099
rclavicle -2.48481e-016 -2.14687e-014
rhumerus 4.20138 54.9171 -95.2291
rradius 147.204
rwrist -41.4982
rhand -45.1984 -20.7075
rfingers 7.12502
rthumb -17.9746 -49.8969
lclavicle -2.48481e-016 -2.14687e-014
lhumerus 7.03245 -38.851 98.3457
lradius 146.146
lwrist 43.7022
lhand -46.2818 -20.072
lfingers 7.12502
lthumb -19.0167 9.01833
rfemur -24.6971 19.111 19.9357
rtibia 27.4913
rfoot -15.6561 -15.6697
rtoes -2.81961
lfemur 0 0 0
ltibia 0
lfoot 0 0
ltoes 0
142
root 5.19229 15.7246 28.0795 -181.239 -86.6935 -161.498
lowerback -31.1098 -0.576301 -3.52475
upperback -3.7564 -0.492655 3.38261
thorax 12.1336 -0.633759 5.32237
lowerneck -9.96089 4.95118 5.08977
upperneck 29.5709 6.3591 -3.93517
head 11.5638 2.6581 -1.57425
rclavicle 1.74434e-014 8.74653e-015
rhumerus 4.20984 54.8652 -95.2282
rradius 147.174
rwrist -41.5224
rhand -45.2091 -20.7491
rfingers 7.12502
rthumb -17.9849 -49.9375
lclavicle 1.74434e-014 8.74653e-015
lhumerus 7.02208 -38.8698 98.3321
lradius 146.116
lwrist 43.7938
lhand -46.2836 -20.1419
lfingers 7.12502
lthumb -19.0184 8.9483
rfemur -24.701 19.1009 19.9448
rtibia 27.4874
rfoot -15.6597 -15.6685
rtoes -2.80494
lfemur 0 0 0
ltibia 0
lfoot 0 0
ltoes 0
143
root 5.19134 15.7247 28.0769 -181.323 -86.7084 -161.404
lowerback -31.1368 -0.553277 -3.5158
upperback -3.73726 -0.458327 3.34264
thorax 12.1614 -0.617304 5.28778
lowerneck -9.92018 4.93346 5.12021
upperneck 29.5567 6.31836 -3.90511
head 11.5478 2.64748 -1.57452
rclavicle -2.20154e-014 4.77083e-015
rhumerus 4.22282 54.7897 -95.2172
rradius 147.145
rwrist -41.5403
rhand -45.211 -20.8236
rfingers 7.12502
rthumb -17.9867 -50.0119
lclavicle -2.20154e-014 4.77083e-015
lhumerus 7.01687 -38.9081 98.3202
lradius 146.088
lwrist 43.8883
lhand -46.2944 -20.2364
lfingers 7.12502
lthumb -19.0289 8.85273
rfemur -24.7003 19.0902 19.9573
rtibia 27.4768
rfoot -15.6575 -15.6685
rtoes -2.79538
lfemur 0 0 0
ltibia 0
lfoot 0 0
ltoes 0
144
root 5.19038 15.725 28.0744 -181.425 -86.7229 -161.293
lowerback -31.1603 -0.526375 -3.50429
upperback -3.71981 -0.420028 3.30288
thorax 12.1855 -0.598838 5.25353
lowerneck -9.88231 4.91274 5.14049
upperneck 29.5449 6.27427 -3.87064
head 11.5326 2.63465 -1.57184
rclavicle 6.55989e-015 4.13472e-014
rhumerus 4.24209 54.711 -95.1962
rradius 147.118
rwrist -41.5544
rhand -45.2215 -20.8867
rfingers 7.12502
rthumb -17.9968 -50.074
lclavicle 6.55989e-015 4.13472e-014
lhumerus 7.0167 -38.947 98.3069
lradius 146.063
lwrist 43.9772
lhand -46.3152 -20.3509
lfingers 7.12502
lthumb -19.0488 8.73635
rfemur -24.6962 19.0874 19.9695
rtibia 27.4606
rfoot -15.6511 -15.6744
rtoes -2.78727
lfemur 0 0 0
ltibia 0
lfoot 0 0
ltoes 0
145
root 5.18945 15.7255 28.072 -181.529 -86.7382 -161.179
lowerback -31.179 -0.499905 -3.4937
upperback -3.70573 -0.382833 3.26706
thorax 12.2041 -0.580882 5.22357
lowerneck -9.84243 4.89065 5.14628
upperneck 29.5328 6.23045 -3.83292
head 11.5162 2.62069 -1.56549
rclavicle 2.17172e-014 1.51076e-014
rhumerus 4.26208 54.6386 -95.1683
rradius 147.092
rwrist -41.5644
rhand -45.2432 -20.9179
rfingers 7.12502
rthumb -18.0176 -50.1034
lclavicle 2.17172e-014 1.51076e-014
lhumerus 7.01789 -38.9818 98.2988
lradius 146.041
lwrist 44.0566
lhand -46.3388 -20.4694
lfingers 7.12502
lthumb -19.0715 8.61553
rfemur -24.6904 19.0855 19.9798
rtibia 27.4405
rfoot -15.6461 -15.6768
rtoes -2.75198
lfemur 0 0 0
ltibia 0
lfoot 0 0
ltoes 0
146
root 5.18851 15.7261 28.0695 -181.63 -86.7522 -161.069
lowerback -31.1909 -0.476593 -3.48425
upperback -3.69481 -0.3502 3.23531
thorax 12.2168 -0.565014 5.19683
lowerneck -9.79905 4.8702 5.14466
upperneck 29.5181 6.19102 -3.79619
head 11.498 2.6078 -1.55771
rclavicle 1.98288e-014 -7.95139e-016
rhumerus 4.28334 54.5801 -95.1396
rradius 147.065
rwrist -41.5686
rhand -45.2769 -20.9277
rfingers 7.12502
rthumb -18.0501 -50.1102
lclavicle 1.98288e-014 -7.95139e-016
lhumerus 7.01997 -39.0072 98.2903
lradius 146.021
lwrist 44.1326
lhand -46.3637 -20.5775
lfingers 7.12502
lthumb -19.0955 8.50509
rfemur -24.6821 19.0844 19.9906
rtibia 27.4188
rfoot -15.6411 -15.6783
rtoes -2.71356
lfemur 0 0 0
ltibia 0
lfoot 0 0
ltoes 0
147
root 5.18755 15.7268 28.0669 -181.718 -86.7653 -160.974
lowerback -31.1948 -0.458216 -3.47952
upperback -3.68735 -0.323309 3.20824
thorax 12.2231 -0.551916 5.17545
lowerneck -9.74998 4.85218 5.14163
upperneck 29.5002 6.15697 -3.76446
head 11.478 2.59663 -1.55093
rclavicle 3.08116e-015 2.38542e-015
rhumerus 4.30292 54.5332 -95.1142
rradius 147.039
rwrist -41.571
rhand -45.3142 -20.9611
rfingers 7.12502
rthumb -18.086 -50.1402
lclavicle 3.08116e-015 2.38542e-015
lhumerus 7.01939 -39.0236 98.2844
lradius 146.003
lwrist 44.1997
lhand -46.3864 -20.6685
lfingers 7.12502
lthumb -19.1173 8.41196
rfemur -24.6708 19.0868 20.0002
rtibia 27.3977
rfoot -15.6422 -15.6767
rtoes -2.64069
lfemur 0 0 0
ltibia 0
lfoot 0 0
ltoes 0
148
root 5.18667 15.7274 28.0643 -181.76 -86.7762 -160.928
lowerback -31.1936 -0.439328 -3.47745
upperback -3.68307 -0.294378 3.1764
thorax 12.2232 -0.537736 5.15105
lowerneck -9.69999 4.83396 5.15183
upperneck 29.4809 6.1209 -3.73635
head 11.4577 2.5856 -1.548
rclavicle 1.3418e-015 -1.19271e-014
rhumerus 4.31984 54.4852 -95.1012
rradius 147.013
rwrist -41.5718
rhand -45.3482 -21.0398
rfingers 7.12502
rthumb -18.1187 -50.2159
lclavicle 1.3418e-015 -1.19271e-014
lhumerus 7.01604 -39.0443 98.2745
lradius 145.986
lwrist 44.2718
lhand -46.3998 -20.7317
lfingers 7.12502
lthumb -19.1302 8.34746
rfemur -24.6606 19.0857 20.0087
rtibia 27.3788
rfoot -15.6443 -15.6722
rtoes -2.57461
lfemur 0 0 0
ltibia 0
lfoot 0 0
ltoes 0
149
root 5.18581 15.7279 28.0616 -181.771 -86.7854 -160.913
lowerback -31.1878 -0.42376 -3.47855
upperback -3.68033 -0.269008 3.146
thorax 12.2201 -0.525269 5.12852
lowerneck -9.65135 4.81913 5.1655
upperneck 29.4598 6.09071 -3.71391
head 11.4377 2.57693 -1.54692
rclavicle -8.29926e-015 -2.06736e-014
rhumerus 4.33799 54.4421 -95.0931
rradius 146.987
rwrist -41.5759
rhand -45.3738 -21.1752
rfingers 7.12502
rthumb -18.1433 -50.349
lclavicle -8.29926e-015 -2.06736e-014
lhumerus 7.01253 -39.0563 98.2615
lradius 145.969
lwrist 44.3477
lhand -46.4053 -20.7741
lfingers 7.12502
lthumb -19.1354 8.3045
rfemur -24.6515 19.0829 20.0171
rtibia 27.3645
rfoot -15.6473 -15.6674
rtoes -2.52288
lfemur 0 0 0
ltibia 0
lfoot 0 0
ltoes 0
150
root 5.18505 15.7284 28.0589 -181.733 -86.794 -160.945
lowerback -31.181 -0.406016 -3.48212
upperback -3.67841 -0.239845 3.11419
thorax 12.2152 -0.511102 5.10727
lowerneck -9.6132 4.80268 5.1798
upperneck 29.4409 6.05973 -3.69732
head 11.4209 2.56719 -1.54798
rclavicle 2.09718e-014 -4.77083e-015
rhumerus 4.36101 54.3848 -95.0792
rradius 146.966
rwrist -41.5969
rhand -45.3914 -21.3316
rfingers 7.12502
rthumb -18.1602 -50.5039
lclavicle 2.09718e-014 -4.77083e-015
lhumerus 7.00915 -39.074 98.2505
lradius 145.953
lwrist 44.428
lhand -46.406 -20.8146
lfingers 7.12502
lthumb -19.1362 8.26402
rfemur -24.6478 19.0769 20.0232
rtibia 27.3562
rfoot -15.6501 -15.6637
rtoes -2.49544
lfemur 0 0 0
ltibia 0
lfoot 0 0
ltoes 0
151
root 5.18444 15.7285 28.0563 -181.674 -86.802 -160.997
lowerback -31.1735 -0.385264 -3.48672
upperback -3.67606 -0.206657 3.0839
thorax 12.2102 -0.49517 5.08979
lowerneck -9.5884 4.78403 5.18329
upperneck 29.4246 6.02853 -3.68295
head 11.4075 2.55579 -1.54777
rclavicle 1.11816e-014 1.19271e-015
rhumerus 4.3903 54.3147 -95.0529
rradius 146.95
rwrist -41.6342
rhand -45.4102 -21.4278
rfingers 7.12502
rthumb -18.1783 -50.5983
lclavicle 1.11816e-014 1.19271e-015
lhumerus 7.0081 -39.0969 98.2476
lradius 145.936
lwrist 44.5171
lhand -46.4045 -20.8798
lfingers 7.12502
lthumb -19.1347 8.19896
rfemur -24.6501 19.0659 20.0284
rtibia 27.3542
rfoot -15.6512 -15.6572
rtoes -2.49108
lfemur 0 0 0
ltibia 0
lfoot 0 0
ltoes 0
152
root 5.1839 15.7285 28.0537 -181.582 -86.809 -161.08
lowerback -31.1675 -0.365849 -3.4947
upperback -3.67251 -0.174466 3.05693
thorax 12.2074 -0.479974 5.0774
lowerneck -9.57391 4.76657 5.18216
upperneck 29.4087 6.00175 -3.67443
head 11.3965 2.54515 -1.54811
rclavicle 5.91384e-015 6.36111e-015
rhumerus 4.4252 54.2395 -95.0206
rradius 146.938
rwrist -41.6885
rhand -45.4445 -21.4254
rfingers 7.12502
rthumb -18.2113 -50.5928
lclavicle 5.91384e-015 6.36111e-015
lhumerus 7.01013 -39.114 98.2462
lradius 145.919
lwrist 44.6125
lhand -46.4052 -20.9605
lfingers 7.12502
lthumb -19.1354 8.11819
rfemur -24.658 19.0595 20.0305
rtibia 27.3579
rfoot -15.654 -15.6562
rtoes -2.49039
lfemur 0 0 0
ltibia 0
lfoot 0 0
ltoes 0
